<?xml version="1.0" encoding="UTF-8"?>
<svg id="Layer_2" data-name="Layer 2" xmlns="http://www.w3.org/2000/svg" viewBox="0 0 1078.51 222.75">
  <defs>
    <style>
      .cls-1, .cls-2 {
        fill: #fff;
      }

      .cls-2 {
        fill-rule: evenodd;
      }
    </style>
  </defs>
  <g id="Layer_1-2" data-name="Layer 1">
    <g>
      <g>
        <path class="cls-1" d="m275,111.38c0-31.45,23.64-55.72,55.72-55.72,20.68,0,38.62,10.98,47.28,27.23l-23.43,13.72c-4.22-8.65-13.3-14.14-24.06-14.14-16.25,0-28.28,12.03-28.28,28.92s12.03,28.71,28.28,28.71c10.98,0,20.05-5.28,24.27-13.93l23.64,13.51c-9.08,16.46-27.02,27.44-47.7,27.44-32.08,0-55.72-24.27-55.72-55.72Z"/>
        <path class="cls-1" d="m504.86,58.61v105.53h-27.23v-12.45c-7.6,9.5-19,15.41-34.4,15.41-28.07,0-51.29-24.27-51.29-55.72s23.22-55.72,51.29-55.72c15.41,0,26.81,5.91,34.4,15.41v-12.45h27.23Zm-27.23,52.77c0-17.73-12.45-29.76-29.34-29.76s-29.13,12.03-29.13,29.76,12.45,29.76,29.13,29.76,29.34-12.03,29.34-29.76Z"/>
        <path class="cls-1" d="m569.24,84.78v43.9c0,11.4,8.23,11.61,23.85,10.76v24.69c-38.2,4.22-51.08-6.97-51.08-35.46v-43.9h-18.36v-26.17h18.36v-21.32l27.23-8.23v29.55h23.85v26.17h-23.85Z"/>
        <path class="cls-1" d="m721.95,58.61v105.53h-27.23v-12.45c-7.6,9.5-19,15.41-34.4,15.41-28.07,0-51.29-24.27-51.29-55.72s23.22-55.72,51.29-55.72c15.41,0,26.81,5.91,34.4,15.41v-12.45h27.23Zm-27.23,52.77c0-17.73-12.45-29.76-29.34-29.76s-29.13,12.03-29.13,29.76,12.45,29.76,29.13,29.76,29.34-12.03,29.34-29.76Z"/>
        <path class="cls-1" d="m745.48,24.27l27.23-7.99v147.86h-27.23V24.27Z"/>
        <path class="cls-1" d="m900.83,58.61l-38.41,105.53c-10.98,30.39-28.92,43.69-55.72,42.21v-25.33c14.99.21,22.59-6.12,27.65-20.26l-43.27-102.16h29.76l27.44,70.92,23.43-70.92h29.13Z"/>
        <path class="cls-1" d="m995.35,133.33c0,22.8-19.84,33.77-42.42,33.77-21.11,0-36.73-8.86-44.32-25.12l23.64-13.3c2.95,8.65,10.13,13.72,20.68,13.72,8.65,0,14.56-2.95,14.56-9.08,0-15.41-54.46-6.96-54.46-44.11,0-21.53,18.36-33.56,40.1-33.56,17.1,0,31.87,7.81,40.1,22.37l-23.22,12.66c-3.17-6.75-9.08-10.76-16.89-10.76-6.75,0-12.24,2.95-12.24,8.65,0,15.62,54.46,5.91,54.46,44.75Z"/>
        <path class="cls-1" d="m1054.66,84.78v43.9c0,11.4,8.23,11.61,23.85,10.76v24.69c-38.2,4.22-51.08-6.97-51.08-35.46v-43.9h-18.36v-26.17h18.36v-21.32l27.23-8.23v29.55h23.85v26.17h-23.85Z"/>
      </g>
      <g>
        <path class="cls-2" d="m144.32,200.72c-13.78-20.07-26.91-40.25-39.29-60.51-19.37-31.7-37.02-63.63-52.84-95.55-13.25,12.8-25.34,26.78-36.1,41.79l120.21,120.21c2.7-1.94,5.38-3.92,8.01-5.95Z"/>
        <path class="cls-2" d="m117.26,133.37c11.99,19.6,24.68,39.12,37.99,58.54,3.01-2.54,5.98-5.14,8.89-7.79-3.89-9.86-7.66-19.97-11.3-30.34C136.58,107.51,122.94,56.06,111.56.11c-.06-.04-.12-.07-.18-.11-17.3,10.01-33.52,21.67-48.44,34.77,16.18,32.93,34.31,65.88,54.33,98.6Z"/>
        <path class="cls-2" d="m166.08,149.24c2.92,8.31,5.92,16.44,8.99,24.41,18.44-18.56,34.5-39.48,47.68-62.27-23.5-40.63-56.13-75.31-95.08-101.25,10.76,50.42,23.59,96.95,38.41,139.11Z"/>
        <path class="cls-2" d="m8.06,98.22c-2.79,4.31-5.49,8.7-8.06,13.15,26.71,46.17,65.21,84.67,111.38,111.38,4.46-2.58,8.84-5.27,13.15-8.06L8.06,98.22Z"/>
      </g>
    </g>
  </g>
</svg>