<?xml version="1.0" encoding="UTF-8"?>
<svg id="Layer_2" data-name="Layer 2" xmlns="http://www.w3.org/2000/svg" viewBox="0 0 222.75 222.75">
  <defs>
    <style>
      .cls-1 {
        fill: #030112;
        fill-rule: evenodd;
      }
    </style>
  </defs>
  <g id="Layer_1-2" data-name="Layer 1">
    <g>
      <path class="cls-1" d="m144.32,200.72c-13.78-20.07-26.91-40.25-39.29-60.51-19.37-31.7-37.02-63.63-52.84-95.55-13.25,12.8-25.34,26.78-36.1,41.79l120.21,120.21c2.7-1.94,5.38-3.92,8.01-5.95Z"/>
      <path class="cls-1" d="m117.26,133.37c11.99,19.6,24.68,39.12,37.99,58.54,3.01-2.54,5.98-5.14,8.89-7.79-3.89-9.86-7.66-19.97-11.3-30.34C136.58,107.51,122.94,56.06,111.56.11c-.06-.04-.12-.07-.18-.11-17.3,10.01-33.52,21.67-48.44,34.77,16.18,32.93,34.31,65.88,54.33,98.6Z"/>
      <path class="cls-1" d="m166.08,149.24c2.92,8.31,5.92,16.44,8.99,24.41,18.44-18.56,34.5-39.48,47.68-62.27-23.5-40.63-56.13-75.31-95.08-101.25,10.76,50.42,23.59,96.95,38.41,139.11Z"/>
      <path class="cls-1" d="m8.06,98.22c-2.79,4.31-5.49,8.7-8.06,13.15,26.71,46.17,65.21,84.67,111.38,111.38,4.46-2.58,8.84-5.27,13.15-8.06L8.06,98.22Z"/>
    </g>
  </g>
</svg>